<svg width="500" height="526" viewBox="0 0 500 526" fill="none" xmlns="http://www.w3.org/2000/svg">
<g clip-path="url(#clip0_2_28)">
<path d="M445.818 82.0273V127.262H417.052V155.545H371.034V127.262H342.278V82.0273H371.034V53.7445H417.052V82.0273H445.818Z" fill="#F4411E"/>
<path d="M476.532 156.304C459.164 183.057 428.716 200.791 394.048 200.791C340.043 200.791 296.26 157.743 296.26 104.645C296.26 88.2375 300.444 72.7811 307.82 59.2746C324.3 29.0543 356.731 8.49921 394.048 8.49921C448.054 8.49921 491.837 51.547 491.837 104.645C491.837 123.658 486.225 141.381 476.532 156.304ZM445.818 127.262V82.0272H417.052V53.7445H371.033V82.0272H342.278V127.262H371.033V155.545H417.052V127.262H445.818Z" fill="white"/>
<path d="M477.396 161.199C479.31 173.097 480.336 186.253 480.336 200.791C480.336 421.356 325.014 517.502 325.014 517.502C302.011 517.502 302.011 494.885 302.011 494.885V353.491C302.011 296.937 244.491 296.937 244.491 296.937C244.491 296.937 186.97 296.937 186.97 353.491V494.884C186.97 494.884 186.97 517.501 163.955 517.501C163.955 517.501 8.64546 421.355 8.64546 200.79C8.64546 -19.7857 244.491 76.3614 244.491 76.3614C244.491 76.3614 271.77 65.2455 307.762 59.2397L307.82 59.2736C300.444 72.7801 296.26 88.2364 296.26 104.644C296.26 157.742 340.043 200.79 394.048 200.79C428.715 200.79 459.164 183.056 476.532 156.303C476.844 157.902 477.131 159.545 477.396 161.199Z" fill="#1F8FFF"/>
<path d="M89.561 115.654C72.3223 129.074 51.7714 153.755 51.7714 195.137H69.0591C69.0591 129.357 129.005 113.527 131.557 112.884L127.342 96.3998C126.563 96.5919 108.065 101.25 89.561 115.654Z" fill="black"/>
<path d="M362.39 164.043H425.696V135.76H454.462V73.529H425.696V45.2463H362.39V73.529H333.636V135.76H362.39V164.043ZM350.922 118.764V90.5264H379.677V62.2437H408.408V90.5264H437.174V118.764H408.408V147.047H379.677V118.764H350.922Z" fill="black"/>
<path d="M485.619 157.993C495.349 141.882 500.481 123.513 500.481 104.645C500.481 46.9434 452.736 0 394.048 0C356.196 0 321.447 19.651 302.329 51.5552C274.525 56.5512 252.566 64.2018 244.49 67.2294C235.803 63.9717 211.061 55.3625 180.26 50.4724C129.459 42.4067 86.6155 48.6499 56.3511 68.5238C18.9596 93.0784 0 137.58 0 200.79C0 252.078 8.33407 300.997 24.7713 346.188C37.938 382.39 56.301 416.277 79.3482 446.911C118.691 499.202 157.705 523.676 159.347 524.692L161.459 525.999H163.954C187.181 525.999 195.614 507.391 195.614 494.883V353.492C195.614 333.727 203.521 319.716 219.115 311.847C231.514 305.591 244.39 305.435 244.491 305.435C246.485 305.435 293.368 305.982 293.368 353.492V494.884C293.368 507.392 301.796 526 325.015 526H327.51L329.621 524.693C331.263 523.678 370.28 499.204 409.626 446.912C432.674 416.279 451.039 382.391 464.207 346.189C480.646 300.997 488.981 252.079 488.981 200.791C488.981 186.21 487.956 172.443 485.936 159.874C485.833 159.234 485.725 158.615 485.619 157.993ZM315.436 63.2895C331.008 34.7345 361.131 16.9964 394.048 16.9964C443.202 16.9964 483.194 56.3149 483.194 104.644C483.194 121.4 478.37 137.682 469.246 151.731C452.759 177.129 424.647 192.292 394.048 192.292C344.893 192.292 304.902 152.974 304.902 104.644C304.902 90.21 308.544 75.9115 315.435 63.2926L315.436 63.2895ZM448.103 339.985C435.583 374.55 418.118 406.915 396.193 436.183C367.821 474.058 336.96 499.379 322.64 508.874C311.781 507.641 310.711 497.933 310.655 494.885V353.492C310.655 319.936 292.417 303.926 277.116 296.405C261.096 288.528 245.16 288.438 244.491 288.438C243.821 288.438 227.885 288.528 211.865 296.405C196.564 303.927 178.326 319.935 178.326 353.492V494.884C178.326 494.92 178.211 498.758 176.362 502.391C175.073 504.924 172.657 508.204 166.386 508.879C157.847 503.095 125.517 479.695 93.2484 436.805C71.2085 407.511 53.6469 375.098 41.0497 340.466C25.2823 297.116 17.2878 250.122 17.2878 200.79C17.2878 143.632 33.6487 103.894 65.9161 82.6827C130.705 40.0941 240.086 83.7676 241.178 84.2124L244.488 85.5582L247.795 84.2134C248.017 84.123 266.872 76.5299 293.373 70.6895C289.588 81.568 287.613 93.0702 287.613 104.644C287.613 162.346 335.36 209.289 394.047 209.289C423.395 209.289 450.819 197.6 470.676 177.288C471.345 184.783 471.691 192.637 471.691 200.791C471.691 249.939 463.755 296.771 448.103 339.985Z" fill="black"/>
</g>
<defs>
<clipPath id="clip0_2_28">
<rect width="500" height="526" fill="white"/>
</clipPath>
</defs>
</svg>
